# xmcd
#
# Track frame offsets: 
#        150
#        20465
#        73817
#        121058
#        161254
#        187173
#        209388
#        236821
#        256588
#        281188
#        301465
#        323052
#
# Disc length: 4647 seconds
#
# Revision: 1
# Processed by: cddbd v1.5.2PL0 Copyright (c) Steve Scherf et al.
# Submitted via: ExactAudioCopyFreeDBPlugin 1.0
#
DISCID=aa12250c
DTITLE=Jimmy Smith - Jimmy Smith:  Eighteen Classic Albums [Real Gone 
DTITLE=Music]
DYEAR=2012
DGENRE=Jazz
TTITLE0=Summertime
TTITLE1=There's a Small Hotel
TTITLE2=All Day Long
TTITLE3=Yardbird Suite
TTITLE4=The Nearness of You
TTITLE5=The Jitterbug Waltz
TTITLE6=East of the Sun
TTITLE7=Autumn in New York
TTITLE8=Penthouse Serenated
TTITLE9=The Very Thought of You
TTITLE10=I Can't Get Started
TTITLE11=Old Devil Moon
EXTD=
EXTT0=
EXTT1=
EXTT2=
EXTT3=
EXTT4=
EXTT5=
EXTT6=
EXTT7=
EXTT8=
EXTT9=
EXTT10=
EXTT11=
PLAYORDER=
